<svg xmlns="http://www.w3.org/2000/svg" width="24" height="24" fill="none" viewBox="0 0 24 24">
  <path fill="#0FB478" d="m21.47 11.185-1.03-1.43a2.5 2.5 0 0 0-2.03-1.05h-4.38v-2.14a2.5 2.5 0 0 0-2.5-2.5H4.56a2.507 2.507 0 0 0-2.5 2.5v9.94a1.5 1.5 0 0 0 1.5 1.5h1.22a2.242 2.242 0 0 0 4.44 0h5.56a2.242 2.242 0 0 0 4.44 0h1.22a1.5 1.5 0 0 0 1.5-1.5v-3.87a2.508 2.508 0 0 0-.47-1.45ZM7 18.935a1.25 1.25 0 1 1 0-2.5 1.25 1.25 0 0 1 0 2.5Zm6.03-1.93H9.15a2.257 2.257 0 0 0-4.3 0H3.56a.5.5 0 0 1-.5-.5v-9.94a1.5 1.5 0 0 1 1.5-1.5h6.97a1.5 1.5 0 0 1 1.5 1.5v10.44Zm3.97 1.93a1.25 1.25 0 1 1 0-2.5 1.25 1.25 0 0 1 0 2.5Zm3.94-2.43a.5.5 0 0 1-.5.5h-1.29a2.256 2.256 0 0 0-4.3 0h-.82v-7.3h4.38a1.516 1.516 0 0 1 1.22.63l1.03 1.43c.18.255.278.558.28.87v3.87Z"/>
  <path fill="#0FB478" d="M18.029 12.205h-2a.5.5 0 0 1 0-1h2a.5.5 0 0 1 0 1Z"/>
</svg>
